<mxfile host="app.diagrams.net" agent="Mozilla/5.0 (Macintosh; Intel Mac OS X 10_15_7) AppleWebKit/537.36 (KHTML, like Gecko) Chrome/126.0.0.0 Safari/537.36" version="26.2.15">
  <diagram name="第 1 页" id="rzc_DVTnZd3EuTVf8gxU">
    <mxGraphModel dx="864" dy="421" grid="1" gridSize="10" guides="1" tooltips="1" connect="1" arrows="1" fold="1" page="1" pageScale="1" pageWidth="827" pageHeight="1169" math="0" shadow="0">
      <root>
        <mxCell id="0" />
        <mxCell id="1" parent="0" />
        <mxCell id="CTm-zYa0rUxEFgS59MSg-5" style="edgeStyle=orthogonalEdgeStyle;rounded=0;orthogonalLoop=1;jettySize=auto;html=1;exitX=1;exitY=0.5;exitDx=0;exitDy=0;entryX=0;entryY=0.5;entryDx=0;entryDy=0;" edge="1" parent="1" source="CTm-zYa0rUxEFgS59MSg-1" target="CTm-zYa0rUxEFgS59MSg-3">
          <mxGeometry relative="1" as="geometry" />
        </mxCell>
        <mxCell id="CTm-zYa0rUxEFgS59MSg-1" value="libaiboost_llm.so&lt;br&gt;对应类：AiboostLlmImp" style="rounded=0;whiteSpace=wrap;html=1;" vertex="1" parent="1">
          <mxGeometry x="230" y="420" width="130" height="40" as="geometry" />
        </mxCell>
        <mxCell id="CTm-zYa0rUxEFgS59MSg-4" style="edgeStyle=orthogonalEdgeStyle;rounded=0;orthogonalLoop=1;jettySize=auto;html=1;exitX=1;exitY=0.5;exitDx=0;exitDy=0;" edge="1" parent="1" source="CTm-zYa0rUxEFgS59MSg-2" target="CTm-zYa0rUxEFgS59MSg-1">
          <mxGeometry relative="1" as="geometry" />
        </mxCell>
        <mxCell id="CTm-zYa0rUxEFgS59MSg-2" value="./aiboost_llm_test" style="rounded=0;whiteSpace=wrap;html=1;" vertex="1" parent="1">
          <mxGeometry x="60" y="420" width="120" height="40" as="geometry" />
        </mxCell>
        <mxCell id="CTm-zYa0rUxEFgS59MSg-3" value="libaiboost.so&lt;br&gt;对应类：AiboostImp" style="rounded=0;whiteSpace=wrap;html=1;" vertex="1" parent="1">
          <mxGeometry x="414" y="420" width="120" height="40" as="geometry" />
        </mxCell>
      </root>
    </mxGraphModel>
  </diagram>
</mxfile>
